<?xml version="1.0" encoding="UTF-8" standalone="no"?>
<svg
   width="997"
   height="737"
   xml:space="preserve"
   overflow="hidden"
   version="1.1"
   id="svg27"
   sodipodi:docname="logo.svg"
   inkscape:version="1.1.2 (b8e25be833, 2022-02-05)"
   xmlns:inkscape="http://www.inkscape.org/namespaces/inkscape"
   xmlns:sodipodi="http://sodipodi.sourceforge.net/DTD/sodipodi-0.dtd"
   xmlns="http://www.w3.org/2000/svg"
   xmlns:svg="http://www.w3.org/2000/svg"><defs
     id="defs31"><inkscape:path-effect
       effect="bool_op"
       id="path-effect28423"
       is_visible="true"
       lpeversion="1"
       operand-path="#path28275"
       operation="diff"
       swap-operands="false"
       rmv-inner="true"
       filltype-this="from-curve"
       filter=""
       filltype-operand="from-curve" /><filter
       id="selectable_hidder_filter"
       width="1.0011364"
       height="1.0011364"
       x="-0.00056818188"
       y="-0.00056818182"
       style="color-interpolation-filters:sRGB;"
       inkscape:label="LPE boolean visibility"><feComposite
         id="boolops_hidder_primitive"
         result="composite1"
         operator="arithmetic"
         in2="SourceGraphic"
         in="BackgroundImage" /></filter><inkscape:path-effect
       effect="bool_op"
       id="path-effect28361"
       is_visible="true"
       lpeversion="1"
       operand-path=""
       operation="union"
       swap-operands="false"
       rmv-inner="false"
       filltype-this="from-curve"
       filter=""
       filltype-operand="from-curve" /><inkscape:path-effect
       effect="skeletal"
       id="path-effect27569"
       is_visible="true"
       lpeversion="1"
       pattern="m 1199.7672,-256.88156 a 10,10 0 0 1 -10,10 10,10 0 0 1 -10,-10 10,10 0 0 1 10,-10 10,10 0 0 1 10,10 z"
       copytype="single_stretched"
       prop_scale="1"
       scale_y_rel="false"
       spacing="0"
       normal_offset="0"
       tang_offset="0"
       prop_units="false"
       vertical_pattern="false"
       hide_knot="false"
       fuse_tolerance="1" /><inkscape:path-effect
       effect="skeletal"
       id="path-effect27529"
       is_visible="true"
       lpeversion="1"
       pattern="M 0,0 H 1"
       copytype="single_stretched"
       prop_scale="1"
       scale_y_rel="false"
       spacing="0"
       normal_offset="0"
       tang_offset="0"
       prop_units="false"
       vertical_pattern="false"
       hide_knot="false"
       fuse_tolerance="0" /><inkscape:path-effect
       effect="skeletal"
       id="path-effect27315"
       is_visible="true"
       lpeversion="1"
       pattern="m 772.01909,-517.54883 a 11.732901,5.8664503 0 0 1 -11.7329,5.86645 11.732901,5.8664503 0 0 1 -11.7329,-5.86645 11.732901,5.8664503 0 0 1 11.7329,-5.86645 11.732901,5.8664503 0 0 1 11.7329,5.86645 z"
       copytype="single_stretched"
       prop_scale="1"
       scale_y_rel="false"
       spacing="0"
       normal_offset="0"
       tang_offset="0"
       prop_units="false"
       vertical_pattern="false"
       hide_knot="false"
       fuse_tolerance="0" /><inkscape:path-effect
       effect="skeletal"
       id="path-effect26880"
       is_visible="true"
       lpeversion="1"
       pattern="m 918.4125,-142.78917 a 11.732901,5.8664503 25 0 1 -13.11289,0.35827 11.732901,5.8664503 25 0 1 -8.15435,-10.27534 11.732901,5.8664503 25 0 1 13.11289,-0.35828 11.732901,5.8664503 25 0 1 8.15435,10.27535 z"
       copytype="single_stretched"
       prop_scale="2.51153"
       scale_y_rel="false"
       spacing="0"
       normal_offset="0"
       tang_offset="0"
       prop_units="false"
       vertical_pattern="false"
       hide_knot="false"
       fuse_tolerance="0" /><inkscape:path-effect
       effect="spiro"
       id="path-effect26831"
       is_visible="true"
       lpeversion="1" /><inkscape:path-effect
       effect="skeletal"
       id="path-effect26827"
       is_visible="true"
       lpeversion="1"
       pattern="m 918.4125,-142.78917 a 11.732901,5.8664503 25 0 1 -13.11289,0.35827 11.732901,5.8664503 25 0 1 -8.15435,-10.27534 11.732901,5.8664503 25 0 1 13.11289,-0.35828 11.732901,5.8664503 25 0 1 8.15435,10.27535 z"
       copytype="single_stretched"
       prop_scale="2.51153"
       scale_y_rel="false"
       spacing="0"
       normal_offset="0"
       tang_offset="0"
       prop_units="false"
       vertical_pattern="false"
       hide_knot="false"
       fuse_tolerance="0" /><inkscape:path-effect
       effect="spiro"
       id="path-effect26778"
       is_visible="true"
       lpeversion="1" /><inkscape:path-effect
       effect="skeletal"
       id="path-effect24337"
       is_visible="true"
       lpeversion="1"
       pattern="m 918.4125,-142.78917 a 11.732901,5.8664503 25 0 1 -13.11289,0.35827 11.732901,5.8664503 25 0 1 -8.15435,-10.27534 11.732901,5.8664503 25 0 1 13.11289,-0.35828 11.732901,5.8664503 25 0 1 8.15435,10.27535 z"
       copytype="single_stretched"
       prop_scale="1"
       scale_y_rel="false"
       spacing="0"
       normal_offset="0"
       tang_offset="0"
       prop_units="false"
       vertical_pattern="false"
       hide_knot="false"
       fuse_tolerance="0" /><inkscape:path-effect
       effect="spiro"
       id="path-effect24288"
       is_visible="true"
       lpeversion="1" /><inkscape:path-effect
       effect="skeletal"
       id="path-effect24284"
       is_visible="true"
       lpeversion="1"
       pattern="m 918.4125,-142.78917 a 11.732901,5.8664503 25 0 1 -13.11289,0.35827 11.732901,5.8664503 25 0 1 -8.15435,-10.27534 11.732901,5.8664503 25 0 1 13.11289,-0.35828 11.732901,5.8664503 25 0 1 8.15435,10.27535 z"
       copytype="single_stretched"
       prop_scale="2.5115266"
       scale_y_rel="false"
       spacing="0"
       normal_offset="0"
       tang_offset="0"
       prop_units="false"
       vertical_pattern="false"
       hide_knot="false"
       fuse_tolerance="0" /><inkscape:path-effect
       effect="spiro"
       id="path-effect24235"
       is_visible="true"
       lpeversion="1" /><inkscape:path-effect
       effect="skeletal"
       id="path-effect23595"
       is_visible="true"
       lpeversion="1"
       pattern="m 918.4125,-142.78917 a 11.732901,5.8664503 25 0 1 -13.11289,0.35827 11.732901,5.8664503 25 0 1 -8.15435,-10.27534 11.732901,5.8664503 25 0 1 13.11289,-0.35828 11.732901,5.8664503 25 0 1 8.15435,10.27535 z"
       copytype="single_stretched"
       prop_scale="1"
       scale_y_rel="false"
       spacing="0"
       normal_offset="0"
       tang_offset="0"
       prop_units="false"
       vertical_pattern="false"
       hide_knot="false"
       fuse_tolerance="0" /><inkscape:path-effect
       effect="skeletal"
       id="path-effect23226"
       is_visible="true"
       lpeversion="1"
       pattern="m 59.439296,-119.24208 a 11.732901,5.8664503 25 0 1 -13.112893,0.35828 11.732901,5.8664503 25 0 1 -8.154346,-10.27536 11.732901,5.8664503 25 0 1 13.112888,-0.35827 11.732901,5.8664503 25 0 1 8.154351,10.27535 z"
       copytype="single_stretched"
       prop_scale="1"
       scale_y_rel="false"
       spacing="0"
       normal_offset="0"
       tang_offset="0"
       prop_units="false"
       vertical_pattern="false"
       hide_knot="false"
       fuse_tolerance="0" /><inkscape:path-effect
       effect="skeletal"
       id="path-effect22989"
       is_visible="true"
       lpeversion="1"
       pattern="M 0,0 H 1"
       copytype="single_stretched"
       prop_scale="1"
       scale_y_rel="false"
       spacing="0"
       normal_offset="0"
       tang_offset="0"
       prop_units="false"
       vertical_pattern="false"
       hide_knot="false"
       fuse_tolerance="0" /><inkscape:path-effect
       effect="skeletal"
       id="path-effect22817"
       is_visible="true"
       lpeversion="1"
       pattern="M 0,0 H 1"
       copytype="single_stretched"
       prop_scale="1"
       scale_y_rel="false"
       spacing="0"
       normal_offset="0"
       tang_offset="0"
       prop_units="false"
       vertical_pattern="false"
       hide_knot="false"
       fuse_tolerance="0" /><inkscape:path-effect
       effect="skeletal"
       id="path-effect22788"
       is_visible="true"
       lpeversion="1"
       pattern="M 0,0 H 1"
       copytype="single_stretched"
       prop_scale="1"
       scale_y_rel="false"
       spacing="0"
       normal_offset="0"
       tang_offset="0"
       prop_units="false"
       vertical_pattern="false"
       hide_knot="false"
       fuse_tolerance="0" /><inkscape:path-effect
       effect="skeletal"
       id="path-effect22354"
       is_visible="true"
       lpeversion="1"
       pattern="M 0,0 H 1"
       copytype="repeated_stretched"
       prop_scale="1"
       scale_y_rel="false"
       spacing="0"
       normal_offset="0"
       tang_offset="0"
       prop_units="false"
       vertical_pattern="false"
       hide_knot="false"
       fuse_tolerance="0" /><inkscape:path-effect
       effect="roughen"
       id="path-effect20282"
       is_visible="false"
       lpeversion="1.1"
       method="size"
       max_segment_size="46"
       segments="2"
       displace_x="1.2;1"
       displace_y="1.3;1"
       global_randomize="1;1"
       handles="along"
       shift_nodes="true"
       fixed_displacement="false"
       spray_tool_friendly="false" /><inkscape:path-effect
       effect="skeletal"
       id="path-effect15803"
       is_visible="true"
       lpeversion="1"
       pattern="m 282.45873,-63.444576 a 9.5601416,9.5601416 0 0 1 -9.56014,9.560141 9.5601416,9.5601416 0 0 1 -9.56014,-9.560141 9.5601416,9.5601416 0 0 1 9.56014,-9.560142 9.5601416,9.5601416 0 0 1 9.56014,9.560142 z"
       copytype="single_stretched"
       prop_scale="1"
       scale_y_rel="false"
       spacing="0"
       normal_offset="0"
       tang_offset="0"
       prop_units="false"
       vertical_pattern="false"
       hide_knot="false"
       fuse_tolerance="0" /><inkscape:path-effect
       effect="roughen"
       id="path-effect13709"
       is_visible="true"
       lpeversion="1.1"
       method="size"
       max_segment_size="46"
       segments="2"
       displace_x="1.2;1"
       displace_y="1.3;1"
       global_randomize="1;1"
       handles="along"
       shift_nodes="true"
       fixed_displacement="false"
       spray_tool_friendly="false" /><inkscape:path-effect
       effect="skeletal"
       id="path-effect13190"
       is_visible="true"
       lpeversion="1"
       pattern="m 281.61798,-58.824677 a 9.5601416,9.5601416 0 0 1 -9.56014,9.560141 9.5601416,9.5601416 0 0 1 -9.56014,-9.560141 9.5601416,9.5601416 0 0 1 9.56014,-9.560142 9.5601416,9.5601416 0 0 1 9.56014,9.560142 z"
       copytype="single_stretched"
       prop_scale="1"
       scale_y_rel="false"
       spacing="0"
       normal_offset="0"
       tang_offset="0"
       prop_units="false"
       vertical_pattern="false"
       hide_knot="false"
       fuse_tolerance="0" /><inkscape:path-effect
       effect="skeletal"
       id="path-effect13106"
       is_visible="true"
       lpeversion="1"
       pattern="m 282.45873,-63.444576 a 9.5601416,9.5601416 0 0 1 -9.56014,9.560141 9.5601416,9.5601416 0 0 1 -9.56014,-9.560141 9.5601416,9.5601416 0 0 1 9.56014,-9.560142 9.5601416,9.5601416 0 0 1 9.56014,9.560142 z"
       copytype="single_stretched"
       prop_scale="1"
       scale_y_rel="false"
       spacing="0"
       normal_offset="0"
       tang_offset="0"
       prop_units="false"
       vertical_pattern="false"
       hide_knot="false"
       fuse_tolerance="0" /><inkscape:path-effect
       effect="skeletal"
       id="path-effect12620"
       is_visible="false"
       lpeversion="1"
       pattern="M 0,18.867925 C 0,8.4528302 8.4528302,0 18.867925,0 c 10.415094,0 18.867924,8.4528302 18.867924,18.867925 0,10.415094 -8.45283,18.867924 -18.867924,18.867924 C 8.4528302,37.735849 0,29.283019 0,18.867925 Z"
       copytype="single_stretched"
       prop_scale="1"
       scale_y_rel="false"
       spacing="0"
       normal_offset="0"
       tang_offset="0"
       prop_units="false"
       vertical_pattern="false"
       hide_knot="false"
       fuse_tolerance="0" /><inkscape:path-effect
       effect="powerstroke"
       id="path-effect11815"
       is_visible="true"
       lpeversion="1"
       offset_points="0.2,4.4070001 | 8.5,4.4070001 | 16.8,4.4070001"
       not_jump="false"
       sort_points="true"
       interpolator_type="CentripetalCatmullRom"
       interpolator_beta="0.2"
       start_linecap_type="zerowidth"
       linejoin_type="round"
       miter_limit="4.1"
       scale_width="1"
       end_linecap_type="zerowidth" /><inkscape:path-effect
       effect="skeletal"
       id="path-effect11813"
       is_visible="true"
       lpeversion="1"
       pattern="M 0,0 H 1"
       copytype="single_stretched"
       prop_scale="1"
       scale_y_rel="false"
       spacing="0"
       normal_offset="0"
       tang_offset="0"
       prop_units="false"
       vertical_pattern="false"
       hide_knot="false"
       fuse_tolerance="0" /><inkscape:path-effect
       effect="powerstroke"
       id="path-effect11355"
       is_visible="true"
       lpeversion="1"
       offset_points="0.2,3.75 | 3,3.75 | 5.8,3.75"
       not_jump="false"
       sort_points="true"
       interpolator_type="CentripetalCatmullRom"
       interpolator_beta="0.31213873"
       start_linecap_type="zerowidth"
       linejoin_type="round"
       miter_limit="4"
       scale_width="1"
       end_linecap_type="zerowidth" /><inkscape:path-effect
       effect="taper_stroke"
       id="path-effect11353"
       is_visible="true"
       lpeversion="1"
       stroke_width="7.5"
       attach_start="0.9"
       end_offset="0.7"
       start_smoothing="0.5"
       end_smoothing="0.5"
       jointype="extrapolated"
       start_shape="center"
       end_shape="center"
       miter_limit="100" /><inkscape:path-effect
       effect="skeletal"
       id="path-effect11351"
       is_visible="true"
       lpeversion="1"
       pattern="M 0,0 H 1"
       copytype="repeated_stretched"
       prop_scale="5"
       scale_y_rel="false"
       spacing="0"
       normal_offset="0"
       tang_offset="0"
       prop_units="false"
       vertical_pattern="false"
       hide_knot="false"
       fuse_tolerance="0" /><inkscape:path-effect
       effect="powerstroke"
       id="path-effect7403"
       is_visible="true"
       lpeversion="1"
       offset_points="0.2,0.5 | 3,0.5 | 5.8,0.5"
       not_jump="false"
       sort_points="true"
       interpolator_type="CentripetalCatmullRom"
       interpolator_beta="0.16184971"
       start_linecap_type="zerowidth"
       linejoin_type="miter"
       miter_limit="4"
       scale_width="1"
       end_linecap_type="zerowidth" /><inkscape:path-effect
       effect="powerstroke"
       id="path-effect1636"
       is_visible="false"
       lpeversion="1"
       offset_points="0.2,4.4070001 | 8.5,4.4070001 | 17.8,4.4070001"
       not_jump="false"
       sort_points="true"
       interpolator_type="CentripetalCatmullRom"
       interpolator_beta="0.080924855"
       start_linecap_type="zerowidth"
       linejoin_type="miter"
       miter_limit="4"
       scale_width="1"
       end_linecap_type="zerowidth" /></defs><sodipodi:namedview
     id="namedview29"
     pagecolor="#505050"
     bordercolor="#ffffff"
     borderopacity="1"
     inkscape:pageshadow="0"
     inkscape:pageopacity="0"
     inkscape:pagecheckerboard="1"
     showgrid="false"
     inkscape:zoom="0.57530529"
     inkscape:cx="642.26769"
     inkscape:cy="319.83019"
     inkscape:window-width="1920"
     inkscape:window-height="1057"
     inkscape:window-x="1912"
     inkscape:window-y="-17"
     inkscape:window-maximized="1"
     inkscape:current-layer="svg27" /><path
     style="display:none;fill:#ff6700;fill-opacity:1;fill-rule:nonzero;stroke:none;stroke-width:1.2;stroke-linecap:butt;stroke-linejoin:miter;stroke-miterlimit:10;stroke-dasharray:none;stroke-opacity:1"
     d="m 362.0347,-93.38446 c 6.52017,1.759597 20.30121,5.413579 44.19695,5.595 8.91274,0.06767 19.52406,-0.338526 31.99294,-1.563666 6.73445,-0.661699 14.33188,-1.587582 22.78356,-2.863602 30.08155,-4.541665 72.57977,-13.876232 118.62505,-30.222212 17.96604,-6.37791 36.29069,-13.78567 53.42404,-22.0459 15.59278,-7.51751 30.37251,-15.8281 42.67981,-24.65069 5.83623,-4.18375 11.16997,-8.52127 15.77172,-12.97545 4.45805,-4.31509 8.29906,-8.80712 11.23574,-13.44004 2.8586,-4.50974 4.92819,-9.26091 5.79584,-14.18489 0.42709,-2.42378 0.56101,-4.8809 0.35564,-7.35217 -0.20323,-2.44547 -0.73593,-4.87049 -1.61592,-7.25651 -0.44984,-1.21983 -1.11388,-2.412 -2.06728,-3.45632 -0.96081,-1.05243 -2.12161,-1.85039 -3.42097,-2.37672 -1.27237,-0.51539 -2.57752,-0.7311 -3.82887,-0.75907 -1.23833,-0.0277 -2.46994,0.12693 -3.65954,0.38945 -2.33561,0.51542 -4.80927,1.51483 -7.34579,2.8113 -2.54041,1.29845 -5.30197,2.97704 -8.25849,4.98164 -5.83724,3.95781 -12.64554,9.33107 -20.30093,15.92158 -7.55465,6.50378 -15.98299,14.23545 -25.17418,23.03352 -18.05513,17.28289 -39.00023,38.62919 -61.92883,62.73447 -22.47358,23.626918 -46.60984,49.648096 -71.51186,76.751733 -48.66354,52.9659405 -99.72075,109.516514 -142.83847,155.563967 -21.31233,22.76044 -40.63891,42.89976 -56.71946,58.69315 -8.02226,7.879 -15.20825,14.64842 -21.41511,20.11399 -3.10136,2.73096 -5.94361,5.12345 -8.51221,7.15921 -2.57395,2.04001 -4.84081,3.69608 -6.79448,4.96789 -15.80741,10.28961 -38.74828,24.88706 -64.85874,40.22236 -26.71946,15.69298 -55.9969,31.71093 -84.17983,44.77767 -14.43985,6.69489 -28.420425,12.5352 -41.543429,17.16891 -13.477295,4.75882 -25.881295,8.18514 -36.883552,10.00698 -5.62215,0.93096 -10.832265,1.43522 -15.602833,1.49641 -4.860413,0.0623 -9.219456,-0.33586 -13.0706755,-1.18664 -3.9268568,-0.86748 -7.29356593,-2.19809 -10.1291861,-3.96527 -2.8914217,-1.80197 -5.275479,-4.08498 -7.1648653,-6.88081 -1.4906451,-2.20578 -2.4968821,-4.44178 -3.0614401,-6.70295 -0.551123,-2.20736 -0.694105,-4.48927 -0.417452,-6.85604 0.271721,-2.32458 0.952117,-4.76072 2.079965,-7.3032 1.108427,-2.4987 2.6440412,-5.08832 4.6284605,-7.75149 3.8854325,-5.21439 9.4185033,-10.61216 16.5656119,-16.02914 6.9537406,-5.27042 15.3529336,-10.49586 25.0391536,-15.50955 18.855408,-9.75975 42.393555,-18.60991 68.730502,-25.20571 25.7824,-6.45691 53.99996,-10.68603 82.48948,-11.45692 11.20512,-0.29352 25.83684,-0.22402 42.99357,0.0884 17.17868,0.31281 36.82596,0.86792 57.93822,1.53702 42.7283,1.35417 91.37178,3.16512 137.86936,4.41866 48.27464,1.30146 93.38367,1.98721 129.60327,1.18022 18.70218,-0.41669 34.84928,-1.22799 47.79603,-2.53764 6.62622,-0.67029 12.45161,-1.47473 17.38136,-2.4341 2.50163,-0.48684 4.79842,-1.01853 6.87028,-1.60143 2.08624,-0.58694 3.99445,-1.23974 5.68069,-1.97579 5.90822,-2.57716 11.33456,-6.67958 16.21538,-11.43906 5.16407,-5.0357 9.92528,-11.01098 14.21416,-17.22571 9.53284,-13.81339 17.46664,-29.88102 23.13592,-42.78082 7.52438,-17.12086 12.43479,-31.71068 14.67655,-39.227858 0.68368,-2.292545 1.21727,-4.240753 1.6232,-5.869017 1.40921,-5.652742 1.50764,-8.65408 1.25878,-10.275471 -0.24798,-1.615672 -0.87512,-2.062912 -1.15684,-2.147654 v 0 c -0.28578,-0.08596 -1.04279,-0.05951 -2.16283,1.10663 -1.16432,1.212244 -2.70945,3.596235 -5.03808,8.896865 -0.6725,1.530782 -1.42984,3.330096 -2.33497,5.524947 -2.38458,5.782434 -9.0416,22.593698 -16.11255,37.813668 -5.82266,12.53309 -13.64681,27.89505 -22.69036,40.8514 -4.06739,5.82719 -8.40867,11.20757 -12.93449,15.6149 -4.30434,4.19165 -8.66922,7.39849 -13.00851,9.31287 -1.11764,0.49291 -2.53686,0.99677 -4.28848,1.49627 -1.72786,0.49273 -3.72928,0.96716 -6.01016,1.41915 -4.50591,0.8929 -9.98594,1.67544 -16.40792,2.34634 -12.55042,1.31113 -28.38631,2.16429 -46.95756,2.63699 -35.95565,0.91519 -80.84377,0.37635 -129.09813,-0.76238 -46.43159,-1.09572 -95.06382,-2.73272 -137.84111,-3.9074 -21.13016,-0.58023 -40.8308,-1.04567 -58.07674,-1.26766 -17.2032,-0.22143 -31.99898,-0.20127 -43.41124,0.19042 -29.1928,0.977 -58.01713,5.49015 -84.30368,12.25172 -26.843191,6.90475 -50.931,16.12033 -70.346459,26.33129 -9.978526,5.2479 -18.73668,10.76414 -26.072465,16.401 -7.5214601,5.77952 -13.587383,11.71539 -17.977019,17.68616 -2.250083,3.06056 -4.072578,6.1475 -5.425328,9.24626 -1.378859,3.15856 -2.271357,6.33366 -2.626587,9.5017 -0.363298,3.24 -0.159803,6.43212 0.624894,9.54133 0.802422,3.17944 2.196332,6.20869 4.131471,9.07222 2.488425,3.68225 5.639527,6.69834 9.4001449,9.05139 3.6649417,2.29318 7.8494632,3.92025 12.469647,4.95534 4.5222241,1.01314 9.4729901,1.4619 14.7921061,1.41274 5.224359,-0.0483 10.825368,-0.57716 16.754009,-1.53516 11.584329,-1.87189 24.455883,-5.3885 38.232777,-10.18764 13.43167,-4.67889 27.673009,-10.55939 42.310549,-17.26559 28.56333,-13.08632 58.15618,-29.09732 85.10473,-44.72066 26.3531,-15.27813 49.4896,-29.78585 65.46751,-39.96463 2.27752,-1.45304 4.79777,-3.27235 7.53146,-5.40877 2.73786,-2.13969 5.72038,-4.62149 8.92491,-7.41221 6.40857,-5.58103 13.75721,-12.44319 21.88216,-20.35853 16.28641,-15.86625 35.78462,-36.05504 57.19428,-58.78859 43.34816,-46.028621 94.53987,-102.470776 143.27791,-155.287153 24.94575,-27.033179 49.08948,-52.952035 71.55519,-76.469827 22.92971,-24.00352 43.79411,-45.17228 61.72042,-62.25254 9.12355,-8.69296 17.4277,-16.271 24.81619,-22.59879 7.51348,-6.43484 13.99373,-11.50225 19.37213,-15.12444 2.7195,-1.83151 5.09832,-3.25341 7.14,-4.28736 2.08635,-1.05658 3.66565,-1.62831 4.79045,-1.87012 0.55259,-0.1188 0.91342,-0.1397 1.11408,-0.13291 0.19479,0.007 0.18151,0.0371 0.0439,-0.0169 -0.15889,-0.0623 -0.33777,-0.18007 -0.4776,-0.33086 -0.12806,-0.1381 -0.12974,-0.20221 -0.0817,-0.0675 0.54161,1.48163 0.8585,2.95632 0.9778,4.43091 0.12078,1.49297 0.0419,3.02215 -0.23733,4.595 -0.57071,3.21511 -1.98718,6.65333 -4.29112,10.29173 -2.3662,3.73673 -5.60409,7.58235 -9.62086,11.484 -4.13386,4.01538 -9.03215,8.03183 -14.53647,12.00136 -11.60909,8.37208 -25.80167,16.45126 -41.01917,23.88288 -16.68594,8.14876 -34.61498,15.53407 -52.26471,21.96349 -45.18965,16.46162 -87.09858,26.29151 -116.54383,31.59626 -8.28518,1.492623 -15.7316,2.661343 -22.32068,3.590687 -12.18032,1.71795 -22.59033,2.803991 -31.29415,3.477324 -23.2846,1.801311 -37.2941,0.888615 -44.00641,-0.06157 z"
     id="path6012"
     sodipodi:nodetypes="csssssc"
     inkscape:path-effect="#path-effect11355"
     inkscape:original-d="m 362.0347,-93.38446 c 99.4594,20.379741 362.82502,-67.55397 340.20115,-129.1061 C 686.266,-265.93929 333.64942,162.37922 265.94575,205.9776 202.99712,246.51393 22.40735,358.37275 -13.036557,305.92452 -40.775434,264.87784 71.266508,205.9776 185.9882,202.50118 c 90.44968,-2.7409 399.01994,18.02524 444.11204,-1.73821 C 670.19936,183.1879 702.2247,76.71954 702.2247,76.71954" /><path
     style="fill:none;stroke:#000000;stroke-width:1px;stroke-linecap:butt;stroke-linejoin:miter;stroke-opacity:1"
     d="m 362.0347,-93.38446 v 0"
     id="path6014" /><g
     id="g21116"
     transform="matrix(0.83393309,0,0,0.83393309,87.12883,196.38735)"><g
       id="g29592"><g
         id="g28359"
         transform="translate(-112.98349,-229.4434)"><g
           id="g28934"
           transform="rotate(-25,2053.1711,961.06985)"><path
             id="path28273"
             d="m 1000.0008,-599.99999 c -119.34743,0 -233.8079,47.41088 -318.19927,131.80225 -84.39136,84.39138 -131.80224,198.84982 -131.80224,318.19723 0,119.347425 47.41088,233.807889 131.80224,318.19926 84.39137,84.39138 198.85184,131.80225 318.19927,131.80225 119.3475,0 233.8057,-47.41087 318.1973,-131.80225 84.3912,-84.39137 131.8021,-198.851834 131.8021,-318.19926 0,-119.34741 -47.4108,-233.80585 -131.8021,-318.19723 -84.3916,-84.39137 -198.8498,-131.80225 -318.1973,-131.80225 z m 2.8319,15.67106 c 116.2981,-1.12022 227.4011,43.30321 308.8686,123.49744 81.4674,80.19423 126.6268,189.59095 125.5411,304.12294 -1.0856,114.531993 -48.3261,224.81682 -131.3289,306.59528 C 1222.9107,231.6652 1110.9438,278.23659 994.64573,279.35681 878.3477,280.477 767.24464,236.0536 685.7772,155.85937 604.30975,75.665137 559.15243,-33.72956 560.23809,-148.26153 c 1.08566,-114.53198 48.3261,-224.81886 131.3289,-306.59732 83.0028,-81.77845 194.96768,-128.34983 311.26571,-129.47008 z"
             style="opacity:1;fill:#0a0a0a;fill-opacity:0.995984;stroke:#000000;stroke-width:1;stroke-linecap:butt;stroke-linejoin:round;stroke-miterlimit:4;stroke-dasharray:none;stroke-opacity:1;paint-order:normal"
             inkscape:path-effect="#path-effect28423"
             inkscape:original-d="m 1450,-150 a 450,450 0 0 1 -450,450 450,450 0 0 1 -450,-450 450,450 0 0 1 450,-450 450,450 0 0 1 450,450 z"
             transform="matrix(0.96141605,0,0,0.96141605,3.1320178,16.720708)" /><path
             id="path28275"
             d="m 1440.5235,-150.09434 a 440,440 0 0 1 -440,440 440,440 0 0 1 -439.99991,-440 440,440 0 0 1 439.99991,-440 440,440 0 0 1 440,440 z"
             style="opacity:1;fill:none;fill-opacity:0.995984;stroke:#000000;stroke-width:1;stroke-linecap:butt;stroke-linejoin:round;stroke-miterlimit:4;stroke-dasharray:none;stroke-opacity:1;paint-order:normal;filter:url(#selectable_hidder_filter)"
             transform="matrix(0.95814363,-0.00922914,-0.0089444,0.94359359,3.348497,20.980474)" /></g></g><g
         id="g21824"><g
           id="g12583"
           transform="matrix(0.90630779,0.42261826,-0.21130913,0.45315389,0,0)"><path
             style="opacity:1;fill:#000000;fill-opacity:1;stroke:none;stroke-width:1.41421;stroke-linecap:butt;stroke-linejoin:miter;stroke-miterlimit:4;stroke-dasharray:none;stroke-opacity:1"
             d="m 668.60497,-328.30672 c 0.56494,-0.0478 2.5213,8.09608 4.11905,25.77048 0.70065,7.75063 0.52124,19.35006 0.74528,33.32172 0.22404,13.97166 0.33499,31.17646 -1.18094,47.6129 -1.07554,11.64354 -2.27967,23.96891 -5.76725,37.22617 -2.64423,10.04661 -6.32623,20.51452 -11.40402,30.86858 -4.3408,8.83961 -10.4113,17.01267 -16.77111,25.46311 -6.05256,8.03884 -12.84456,16.99838 -20.29009,24.56127 -8.30785,8.439432 -15.46937,16.095474 -23.80823,23.460205 -8.33885,7.364731 -17.88326,14.460744 -27.57041,23.165847 -5.70338,5.126256 -11.6104,10.043641 -17.41005,15.144931 -5.79965,5.101289 -11.62273,10.437741 -17.75383,15.78641 -4.57721,3.993155 -13.95696,12.216022 -23.40674,20.4473189 -9.44979,8.231297 -18.74402,17.1514141 -23.32124,21.1445691 -8.67099,7.543739 -18.10138,14.35719 -27.31424,22.320205 -9.71043,7.050995 -18.2677,16.296203 -27.83203,24.795303 -9.06719,8.428567 -19.45427,16.893864 -29.2549,25.616163 -9.73181,8.661052 -19.35243,17.626168 -29.03132,26.323578 -8.78338,7.89314 -17.77752,16.00657 -26.85433,24.27224 -9.10069,8.28157 -17.57368,16.72998 -26.79845,25.31008 -8.61506,8.68124 -18.74569,17.04372 -28.23231,25.95516 -9.37126,8.80305 -18.85711,18.06801 -27.95667,27.10867 -7.19834,7.1525 -14.46725,14.38588 -21.60174,21.83327 -7.13449,7.44739 -13.93928,15.19537 -20.86019,22.93412 -5.59912,6.26104 -11.30324,12.54853 -16.57345,19.09849 -4.32071,5.37429 -8.4812,10.92797 -12.25467,16.55201 -7.34545,10.90514 -14.09359,21.812 -19.98094,33.84797 -5.88734,12.03597 -10.65527,25.59158 -15.58036,38.50541 -5.0004,13.15105 -9.51539,25.79468 -13.65543,39.37398 -4.14004,13.5793 -8.29361,27.60866 -11.48072,41.75161 -2.85611,12.68418 -4.94162,25.9887 -6.92221,38.93459 -1.69321,11.08361 -3.16908,21.62759 -3.86563,32.77029 l -0.49454,0.8217 c 0.084,8.46416 -0.45751,17.28794 0.3012,25.53753 0.28609,3.06183 0.7463,5.50619 1.39247,8.18286 0.53805,2.06299 0.89014,3.99958 1.58716,5.16664 l 0.18748,-0.33606 c 0.53727,0.6729 -0.15294,1.28607 -0.53995,0.88875 l 0.70321,-0.30774 c -0.18917,-0.11296 -0.36198,-0.30192 -0.28767,-0.28008 0.1245,0.032 -0.0638,0.15046 0.43408,0.0635 1.42542,-0.2285 3.48228,-1.70999 5.60149,-2.92567 2.8137,-1.71238 6.12717,-3.31586 8.92454,-5.80908 8.07508,-7.22886 14.16817,-15.06313 21.14326,-24.27626 4.86569,-6.45599 10.50373,-12.47078 15.18294,-19.55689 4.67921,-7.08611 8.00468,-16.41884 12.21374,-23.54194 l 0.20314,0.79999 c 5.9994,-9.98033 11.7139,-20.2089 17.21709,-30.55497 5.4807,-10.39102 10.7263,-21.09834 15.80787,-31.7465 5.02909,-10.88912 9.9679,-21.35051 14.70921,-32.18805 4.76948,-10.90192 9.37777,-22.08243 13.86334,-33.28569 4.87661,-12.18739 9.46704,-24.56329 14.00921,-36.90577 4.42189,-12.43443 9.51917,-24.85177 13.75271,-37.31576 4.82009,-12.55062 7.83367,-24.96856 11.67661,-37.50643 3.49219,-12.7417 7.61063,-24.44992 11.3108,-37.23771 3.68918,-12.74985 7.36967,-26.46853 10.78828,-39.40297 2.57857,-9.7572 4.33353,-20.15683 6.68654,-30.00685 2.353,-9.85001 5.67253,-19.59291 7.87864,-29.50391 1.71133,-7.68926 2.64858,-15.072515 4.19522,-22.673291 1.54663,-7.600776 3.75209,-15.392292 5.33014,-23.123266 1.59946,-7.835867 2.75898,-15.61668 4.30777,-23.466971 2.69394,-13.654761 5.39568,-27.256569 7.99954,-40.9380668 2.65894,-13.6252982 4.71054,-26.6076152 7.217,-40.3230082 2.07649,-13.030459 5.83808,-27.507258 8.3836,-41.531899 2.49458,-13.743956 4.49122,-27.583488 6.78728,-41.092108 2.09516,-12.3272 5.10473,-25.48606 7.14053,-37.81935 2.93863,-12.8876 4.78822,-23.37055 6.6488,-35.34455 2.82829,-11.78374 2.73027,-25.38369 4.46891,-37.91155 0.70365,-12.61969 3.34954,-23.64935 5.30681,-35.7751 1.9662,-12.18104 4.81221,-25.62324 6.73741,-37.7797 1.0678,-6.74255 2.61299,-17.03208 4.50797,-29.32382 1.85286,-12.35419 4.61731,-26.53657 6.92625,-41.57374 2.83407,-14.98219 5.68899,-30.39685 7.92704,-45.47677 3.26164,-14.69905 4.11431,-30.13107 5.68727,-42.57891 1.55953,-12.34152 2.99881,-22.40596 4.06238,-29.12182 2.395,-15.31144 4.91028,-30.43071 7.24889,-45.38385 2.49465,-14.95906 4.40333,-30.21283 6.69716,-44.91114 2.05075,-15.11988 4.58966,-30.12598 6.94915,-44.52205 2.38246,-14.53621 5.21949,-28.31023 7.62013,-42.95651 2.15396,-13.14179 4.74565,-26.37077 6.85409,-39.17306 2.56854,-12.99511 4.13105,-25.23961 6.16604,-37.67242 2.06231,-12.56269 4.46939,-25.72582 6.59458,-38.15749 2.12027,-12.4029 2.81512,-24.58237 5.13146,-36.973 1.95128,-10.43809 4.51019,-21.26484 6.81074,-31.37897 2.30056,-10.11413 3.87143,-18.87414 6.00434,-28.98162 1.76887,-8.38436 3.86775,-17.06715 5.86489,-25.45803 1.99714,-8.39087 3.70566,-16.4802 5.7852,-24.60955 1.68789,-6.59861 3.18548,-13.08045 5.1076,-19.5901 l 0.0395,0.96264 c 2.00248,-6.41216 3.70543,-12.01163 5.6226,-17.332 1.47025,-4.09639 4.19113,-7.59402 6.19385,-11.71357 1.3183,-2.80947 1.92391,-5.85633 4.40216,-8.88207 1.52029,-2.03492 3.97876,-4.4581 7.54616,-6.34677 l -0.14556,-0.45129 c 1.4368,-0.55952 4.18521,-1.46792 6.26624,-1.5857 1.93989,-0.0312 2.84982,0.74479 4.53582,1.62468 3.60144,2.31691 6.27828,4.59467 6.97727,6.76969 1.44439,3.20346 1.4943,6.65753 1.94664,9.37893 0.69453,3.84587 0.90097,6.59444 1.08898,10.2136 0.24708,4.6073 0.35022,10.19013 0.24157,14.65019 -0.27736,11.42651 -1.90094,22.62352 -3.2723,33.52648 -1.83218,14.59699 -4.53303,28.73843 -7.2979,42.68203 -2.76487,13.94361 -5.30605,27.45077 -9.02296,40.57313 -2.94289,10.40977 -5.47471,20.28603 -8.915,30.17352 -2.81548,9.6923 -7.15126,19.54119 -11.31585,29.02694 -4.09524,9.32781 -9.17404,19.10704 -13.64427,27.80641 -7.19247,13.98164 -14.42526,27.33017 -21.49957,40.18636 -7.0743,12.85619 -14.08581,25.19129 -21.10359,37.08217 l -0.78456,0.0439 c -6.03023,10.71065 -11.79429,20.96638 -17.75419,30.74726 -5.73201,9.83166 -12.29786,19.42374 -18.23079,28.3804 -5.91423,8.92843 -10.65245,16.54149 -16.38718,24.75437 -7.39197,10.58933 -15.15532,19.51584 -21.98009,28.47278 -7.52669,8.20131 -13.37283,17.08465 -19.57967,24.87604 -6.1675,7.742 -12.65178,15.69189 -18.626,22.11392 -11.11143,11.94549 -19.4655,20.73248 -28.08794,27.83177 -8.80691,7.25662 -16.01478,11.53769 -21.0723,14.40504 -4.90007,2.77807 -7.62026,3.57492 -7.77328,3.29599 -0.15302,-0.27894 2.18516,-1.88376 6.67346,-5.14977 4.73143,-3.44293 10.54831,-7.47157 18.90372,-15.1663 8.12946,-7.49261 17.34306,-17.31222 27.91859,-29.55529 5.71631,-6.61824 11.62593,-13.73038 17.54345,-21.29206 6.05914,-7.66712 12.26083,-15.21231 18.5856,-24.07787 6.36287,-8.91897 13.16441,-18.65728 20.30592,-29.40978 5.51391,-8.30454 11.93193,-17.75236 17.52523,-26.81819 6.39343,-9.69199 10.09573,-17.49757 15.56455,-27.01431 5.65461,-9.84004 11.97357,-20.87987 18.17731,-31.8276 10e-6,-2e-5 1.07068,0.35362 1.07069,0.3536 6.76466,-11.93866 12.8976,-24.92681 19.62915,-37.96659 6.73155,-13.03978 14.65925,-25.34293 21.58898,-39.31006 6.36961,-12.82912 11.5364,-26.00457 16.5231,-40.25556 4.98671,-14.251 9.67171,-29.38724 13.82172,-44.73901 3.48067,-12.9021 5.94674,-26.95393 8.66864,-40.62917 2.72189,-13.67523 5.93549,-26.58385 7.56271,-40.79445 1.21286,-10.61672 1.90234,-21.94329 2.04676,-32.72023 0.0559,-4.20087 0.0658,-8.51799 -0.20028,-12.63733 -0.21674,-3.26423 -0.4065,-6.03935 -0.99029,-9.01892 -0.46913,-2.19868 -0.42705,-3.41345 -1.1321,-4.75865 -0.72956,-0.8199 -1.37086,-1.47458 -0.71148,-0.71368 0.5183,0.26923 0.78972,-0.48234 1.4105,-0.48096 0.59378,-0.081 1.97935,0.26898 1.95419,0.22063 l -0.62238,0.5211 c -0.52687,-0.38826 -1.12279,0.53511 -2.46161,1.91655 -1.23167,1.40716 -2.86467,4.6457 -4.07412,7.07019 -1.63529,3.4134 -2.11964,5.85068 -3.47504,9.69713 -1.73901,4.95713 -3.74155,10.21651 -5.23099,15.42265 l -0.003,0.0254 c -1.79747,6.2718 -3.33487,12.63057 -4.93582,19.11624 -1.97375,7.99619 -3.90448,15.96295 -5.7232,24.10847 -1.81873,8.14552 -2.89228,17.07485 -4.58389,25.41464 -2.03723,10.04637 -4.13528,19.96684 -6.22037,30.00804 -2.08509,10.04121 -4.16198,20.45895 -6.03152,30.87273 -2.21579,12.34274 -4.28504,24.77639 -6.41787,37.17181 -2.03294,12.46746 -4.21769,24.76668 -6.31162,37.28312 -2.08021,12.52035 -3.39556,24.46941 -5.48233,37.28011 -2.08408,12.7942 -5.30333,26.28253 -7.38307,39.43338 -2.31007,14.60791 -4.28732,28.85658 -6.52701,43.47334 -1.96877,14.37292 -4.40736,29.07688 -6.68464,43.96379 -2.15552,14.39516 -4.61273,29.54876 -6.93779,44.70383 -2.30822,15.0453 -4.47525,30.66717 -6.79828,45.9245 -1.85918,12.21085 -4.17301,24.64955 -6.07344,37.07103 -2.32489,12.48173 -3.88947,24.87701 -5.77389,37.38938 -2.00388,12.60955 -3.1164,25.74184 -5.00048,38.38317 -1.22099,13.15316 -2.87879,25.35044 -4.94372,37.8295 -2.08696,12.61226 -5.48289,25.32693 -7.46531,38.05984 -1.88942,12.13568 -3.82332,24.37929 -5.72808,36.56312 -1.94066,12.24263 -3.5425,24.40333 -5.46665,36.60063 -1.66132,12.29293 -4.35089,24.63871 -6.35679,36.89653 -2.4493,12.40026 -4.71902,24.36746 -6.65962,36.59518 -1.9521,12.30023 -2.93312,24.6004 -5.02426,37.0015 -2.30659,13.67938 -4.4616,27.512997 -6.85486,41.228493 -2.19643,13.824228 -4.6667,27.288963 -7.17919,40.980314 -2.34488,13.655322 -5.14133,27.5339105 -7.81335,41.3086678 -2.66254,13.7258362 -5.75567,27.3926262 -8.45685,41.0972212 -1.55458,7.88728 -2.78803,15.743895 -4.39705,23.62629 -1.58747,7.776872 -2.94174,15.170345 -4.58567,22.956713 -1.64394,7.786371 -3.20271,15.956511 -4.93077,23.710111 -2.22621,9.99011 -4.59199,19.9712 -7.07866,29.93664 -2.48666,9.96545 -5.2178,20.17768 -7.8462,30.0976 -3.45244,13.03129 -7.92275,26.87422 -11.62905,39.77348 -4.51689,13.47513 -7.21422,24.67365 -11.0186,37.06455 -3.86285,12.49645 -8.036,25.73212 -12.29599,38.52581 -4.19022,12.62001 -7.64823,26.10717 -12.22133,38.64021 -4.55739,12.49 -10.2154,24.01832 -15.1917,36.38414 -4.54496,11.30073 -9.47009,22.86902 -14.31347,33.98457 -5.04897,11.36956 -9.97431,22.11074 -15.09816,32.8594 -5.41221,11.07051 -10.66411,21.735 -16.21466,32.2796 -5.58244,10.60516 -10.34051,20.24279 -16.52565,30.6508 l -1.17491,0.64073 c -4.20092,7.30736 -8.86221,15.10904 -13.51681,22.21232 -4.65459,7.10329 -9.67163,13.77955 -14.83031,20.58533 -7.28215,9.64854 -15.89884,19.74818 -25.30001,28.1927 -3.26378,2.94266 -5.57837,5.00864 -9.6847,7.54521 -2.91939,1.87807 -7.59267,3.0947 -11.92988,4.13652 -1.72514,0.4031 -3.00068,1.48736 -5.1474,1.39424 -1.93156,-0.0885 -3.82927,-1.03604 -5.85119,-1.87372 l 0.027,-0.73526 c -4.22877,-1.2327 -6.50679,-3.43295 -8.10766,-6.70681 l -0.0173,-1.03459 c -2.36256,-3.02268 -2.90144,-5.91626 -3.52097,-8.7986 -0.87902,-3.83914 -1.86205,-7.98642 -2.1575,-11.57543 -0.8042,-9.62465 -0.0169,-18.65317 0.61308,-27.76808 l -0.51365,-0.26091 c 0.78539,-11.87143 2.54484,-22.78741 4.35602,-34.23613 2.11577,-13.39268 4.4919,-27.71497 7.49422,-40.73095 3.34188,-14.49892 6.69586,-29.14898 10.95304,-43.10322 4.25719,-13.95425 9.59684,-27.41669 14.82891,-40.94303 5.11397,-13.25932 9.79898,-27.26379 16.01402,-39.79919 6.21504,-12.5354 13.7834,-23.70511 21.6692,-35.29939 4.18871,-6.1376 9.04395,-11.90592 13.58875,-17.46702 5.55249,-6.79958 11.26131,-13.24301 17.03797,-19.60599 7.1359,-7.86049 14.0465,-15.66568 21.32381,-23.16953 7.27731,-7.50385 15.14547,-14.85509 22.4624,-22.00773 9.30847,-9.10043 18.65109,-18.63974 28.03034,-27.47297 9.28322,-9.33546 18.47765,-17.15829 27.75027,-25.5498 9.25081,-8.333 19.21196,-17.22248 28.49562,-25.44259 9.2051,-8.15055 17.88434,-15.80395 26.76386,-23.62202 9.8867,-8.705397 20.3697,-16.706585 30.20651,-25.249071 10.41887,-7.892935 19.62076,-17.115974 29.17174,-25.490653 9.61945,-8.435223 19.18304,-15.857504 28.36121,-23.846552 9.20434,-8.011812 17.65843,-16.691743 26.47667,-24.164028 6.9878,-5.92127187 15.56929,-13.0772506 24.05696,-20.149738 8.48767,-7.072487 17.21989,-13.558828 24.20769,-19.4801 6.21837,-5.266452 12.37574,-10.137375 18.15034,-15.258136 5.77459,-5.120762 12.0998,-11.429704 17.85755,-16.439151 9.94439,-8.65614 18.59481,-15.870824 26.87844,-23.007215 8.28364,-7.13639 15.95399,-14.219676 24.23504,-22.327696 7.36124,-7.20745 15.16566,-14.2973 21.0677,-21.81806 6.19451,-7.88974 9.93874,-15.98604 14.22051,-24.23282 5.0202,-9.65614 9.98181,-19.28557 12.76703,-28.8438 3.67974,-12.62302 5.46018,-25.3801 6.8653,-36.72881 1.96067,-15.82109 2.68576,-31.4949 2.8553,-45.29412 0.16955,-13.79922 0.68999,-26.05392 0.48646,-33.57112 -0.47827,-17.66526 -1.69779,-26.38966 -1.13284,-26.43741 z"
             id="path13141"
             inkscape:path-effect="#path-effect13190;#path-effect13709"
             inkscape:original-d="m 287.80814,-470.65518 c 69.91646,-38.35456 161.80618,-193.59808 208.15564,-285.32691 53.15003,-105.18764 64.67216,-265.52951 35.42201,-230.57878 -46.52755,55.59529 -138.32001,875.13814 -213.75928,1160.223 C 240.13924,466.48641 131.74288,599.90388 113.95616,566.9056 97.574342,536.5137 127.05787,376.32205 183.40745,293.08317 239.75703,209.8443 489.10639,4.4152191 563.06706,-60.993186 642.56921,-131.3023 683.31602,-153.96021 668.58794,-328.17876"
             sodipodi:nodetypes="cssssssc" /></g><path
           style="fill:#000000;fill-opacity:1;stroke:none;stroke-width:1px;stroke-linecap:butt;stroke-linejoin:miter;stroke-opacity:1;paint-order:normal"
           d="m 904.0556,407.5346 c 0.22026,-0.11712 1.25488,1.08608 2.58706,3.92207 1.27598,2.71634 2.97386,7.47367 3.18454,13.74501 0.17423,5.35094 -0.65557,11.62248 -3.11678,18.73223 -3.64735,10.54433 -10.01791,21.54372 -20.15731,33.44188 -5.32047,6.27085 -11.97081,12.54019 -20.04909,17.78651 -6.36598,4.15384 -13.97633,7.83625 -22.53867,9.52152 -6.95121,1.38591 -14.86216,1.19537 -22.30969,-1.89926 -7.47557,-3.26436 -13.61224,-9.24639 -17.66591,-16.59588 -4.81561,-8.59796 -8.32371,-18.24654 -10.40118,-28.58943 -2.06829,-10.30028 -2.77413,-21.05621 -2.38525,-32.15349 0.83099,-23.48622 5.97156,-47.02118 13.70326,-72.02405 7.92237,-25.71198 17.96059,-51.02496 29.74626,-78.26195 11.53088,-26.66151 22.92512,-50.96506 35.97608,-79.49588 10.97873,-23.9991 22.57369,-48.108 34.97783,-73.2721 9.74011,-19.76026 19.86235,-39.845208 29.88367,-60.438103 7.19773,-14.8043 14.55448,-29.994669 20.60516,-45.401814 2.11266,-5.394655 4.06523,-10.747135 5.48134,-16.08748427 0,0 2e-5,-9.022e-5 2e-5,-9.022e-5 0.97447,-3.87064951 1.79971,-7.39198431 1.70637,-10.47329351 -0.0657,-1.173007 -0.085,-2.001293 -0.27655,-2.36514 -0.15807,-0.146049 0.006,-0.06645 0.41749,0.486116 0.59313,0.417921 0.90609,0.631115 1.14545,0.618246 0,0 2e-5,-10e-7 2e-5,-10e-7 0.0712,-0.06795 -0.3192,0.05556 -1.09159,0.153027 0,0 -6e-5,7e-6 -6e-5,7e-6 -2.4713,0.431108 -5.26193,2.0613499 -8.58181,3.9363043 0,0 -9e-5,4.67e-5 -9e-5,4.67e-5 -4.57105,2.7244557 -8.9961,6.0253087 -13.48975,9.5812872 -5.67544,4.5069001 -11.19302,9.3423528 -16.69071,14.3826648 0,0 -8e-5,6.9e-5 -8e-5,6.9e-5 -6.43739,5.904742 -12.74963,12.034717 -19.02637,18.340617 -14.43273,14.50005 -28.43335,29.67929 -42.3678,45.449113 -14.88921,16.852588 -29.53321,34.236818 -43.9748,52.149058 -13.84565,17.17426 -27.49417,34.81126 -40.714,52.92923 -11.31259,15.50856 -22.37817,31.36991 -32.57566,47.73629 -4.09817,6.57846 -8.04537,13.21435 -11.67745,19.96016 -5.6755,4.14944 -11.17096,8.25468 -16.14798,12.40381 1.73886,-10.73532 2.89646,-21.86353 3.78884,-33.24504 0,0 10e-6,-1.2e-4 10e-6,-1.2e-4 4.18675,-11.39959 7.99782,-23.00784 11.62027,-34.78092 7.76817,-25.24773 14.55276,-50.90142 21.13518,-76.97113 6.13469,-24.303536 11.98597,-48.868882 18.13366,-73.521058 0,0 3e-5,-1.14e-4 3e-5,-1.14e-4 2.53461,-10.165534 5.13006,-20.387001 7.92355,-30.602758 2.16014,-7.9193473 4.45249,-15.95479723 7.19157,-23.9821322 -0.25722,0.3700985 -0.34931,1.4592096 -0.33054,3.2813476 0.0797,1.7248637 0.96333,3.50806761 2.64802,5.396856 4.28064,2.375981 6.26563,3.2656318 6.21787,2.3637412 0.55775,-0.1361313 0.43183,-0.029593 -0.12593,0.1065387 -0.6879,0.2368807 -1.49688,0.6119402 -2.44495,1.0644719 -2.75217,1.3287951 -5.5349,3.0099699 -8.43344,4.8476198 0,0 -9e-5,5.98e-5 -9e-5,5.98e-5 -3.91036,2.4933002 -7.74856,5.2044022 -11.55433,8.0537982 -21.91962,16.391453 -41.45181,36.067771 -57.73773,58.132653 -0.97772,1.504286 -1.93624,3.026278 -2.87793,4.564264 -4.65937,7.609781 -8.90643,15.610864 -13.02652,23.794632 -6.17596,12.25104 -11.90094,24.79884 -17.43599,37.48877 0,0 -5e-5,1.1e-4 -5e-5,1.1e-4 -13.312,30.52405 -25.42501,61.67224 -37.2739,92.82215 -12.94896,34.0481 -25.76056,68.9026 -38.39972,102.74006 -15.07759,31.32852 -29.96911,62.13448 -45.7513,92.7665 -2.40911,-2.16225 -4.81206,-4.42921 -7.17271,-6.78454 0.74141,-1.81553 1.47436,-3.65537 2.20983,-5.51273 2.24119,-5.6605 4.44877,-11.35624 6.64908,-17.05028 6.93811,-17.95508 13.81628,-36.00279 20.59511,-53.79491 20.09331,-52.7383 38.32313,-100.82603 58.41644,-153.56433 20.36322,-53.43877 39.32536,-103.091537 58.73388,-152.977311 7.03959,-18.094191 13.88812,-35.6247585 20.95717,-53.148541 2.26281,-5.610034 4.53002,-11.1884 6.90243,-16.764024 0.77061,-1.811882 1.56347,-3.649565 2.40675,-5.505991 2.29784,0.61722 4.68729,1.04491 7.25111,1.3309 0.005,0.0091 0.006,0.01207 0.0111,0.02115 0,0 9e-5,1.6e-4 9e-5,1.6e-4 -4e-5,-6.8e-5 0.032,0.06045 0.032,0.06038 v 0 c 1.80138,1.722131 3.60336,3.443438 5.40596,5.163937 10e-6,7e-6 2e-5,1.5e-5 3e-5,2.2e-5 -0.16274,0.106704 -0.32394,0.211962 -0.4835,0.315925 0,0 -10e-6,2e-6 -10e-6,2e-6 -0.61808,0.402708 -1.23404,0.800931 -1.84697,1.195394 v 0 l -9e-5,5.3e-5 v 0 c -2.30554,1.483776 -4.61265,2.943785 -6.91386,4.383964 -8.09418,5.065739 -16.20707,9.945342 -24.31098,14.6496032 -11.23681,6.5235902 -22.45823,12.7072659 -33.74357,18.5142828 -13.39069,4.108855 -26.70756,7.83306 -40.2397,10.932406 21.40039,-9.375293 41.9666,-20.62883015 61.26356,-32.124595 7.04834,-3.334968 13.94096,-6.747475 20.68657,-10.259848 1.93434,-1.00722 3.8475,-2.017584 5.74063,-3.03976 0.50336,-0.271785 1.00179,-0.542414 1.49518,-0.813085 0.12727,-0.06982 0.25255,-0.138704 0.37581,-0.206805 0.009,0.0065 2.06178,1.469399 2.07088,1.475877 0.005,0.0034 0.5231,0.372987 0.52787,0.376382 0.30059,0.222581 0.0211,0.01562 0.32169,0.238205 -6.4e-4,0.0088 0.3823,0.333177 0.38368,0.334347 0.50733,0.429793 1.01448,0.859583 1.52144,1.289369 4e-5,3.4e-5 7e-5,5.3e-5 9e-5,7.2e-5 -0.0108,-0.0093 4.64494,4.023551 4.63417,4.014221 -0.0152,0.05658 -0.35818,1.293583 -0.37372,1.349892 -0.47927,1.723387 -0.96148,3.440313 -1.44383,5.147697 -1.78693,6.3251533 -3.59418,12.5845828 -5.40147,18.7498526 -6.19709,21.1408724 -12.42037,41.2791894 -18.71663,60.6033884 -8.34689,25.62203 -16.45289,48.810918 -25.19701,71.034098 -4.38819,11.1539 -8.78984,21.66942 -13.50972,31.83477 -4.16956,8.99142 -8.42266,17.42101 -13.36545,25.42806 -1.63468,2.51235 -3.68236,4.26144 -5.67369,5.43951 -2.6588,1.6538 -5.39737,2.81057 -8.00472,3.70185 -7.41779,2.56201 -14.97752,3.84807 -21.86902,4.77931 -9.59597,1.31616 -19.02899,1.99064 -27.61229,2.41375 -10.75082,0.53171 -21.0523,0.68466 -30.21158,0.68061 -22.70241,-0.01 -42.3774,-0.98296 -54.74334,-1.80229 -16.19178,-1.24046 -24.32083,-2.15358 -24.2969,-2.72859 0.0239,-0.575 8.2007,-0.80955 24.42196,-0.7011 11.70573,-0.0426 32.64704,-0.0725 54.50586,-0.88846 9.07367,-0.33863 19.2974,-0.84236 29.85837,-1.70022 8.4494,-0.68757 17.66798,-1.61884 26.88608,-3.14964 6.68199,-1.12275 13.71677,-2.48502 20.15611,-4.93467 2.25071,-0.86576 4.38962,-1.80283 6.17379,-3.01413 1.28934,-0.93748 2.38552,-1.78809 2.79853,-2.67715 4.49686,-7.67537 8.37593,-15.85797 12.28349,-24.76885 4.39841,-10.04467 8.4995,-20.45834 12.61975,-31.57403 8.21407,-22.16286 15.80924,-45.24278 23.69587,-70.882884 5.94039,-19.316265 11.81509,-39.42962 17.67546,-60.552512 1.70852,-6.1583037 3.41603,-12.4045686 5.10201,-18.707581 0.45514,-1.701537 0.90905,-3.408411 1.35892,-5.117248 -0.0203,0.07716 0.36966,-1.408664 0.34935,-1.331504 -0.008,-0.0052 4.82649,3.334302 4.8185,3.328788 2e-5,1.6e-5 5e-5,3.1e-5 7e-5,4.7e-5 0.52251,0.37183 1.04517,0.743643 1.568,1.115453 0.002,0.0011 0.39589,0.281521 0.39748,0.28265 0.61088,0.490222 -0.30309,-0.2571 0.30577,0.240738 0.002,0.0021 0.47443,0.403044 0.47691,0.405154 0.005,0.0044 1.86571,1.584035 1.87092,1.588454 -0.13816,0.07883 -0.27463,0.156349 -0.40937,0.23269 -0.52241,0.295982 -1.04279,0.587885 -1.56094,0.876867 -1.949,1.08698 -3.90623,2.155086 -5.87223,3.2127077 -6.8566,3.6886278 -13.85519,7.270015 -21.00235,10.7652151 C 682.39418,9.4152537 659.73824,16.650076 635.7854,21.74775 647.20554,14.4612 658.46443,6.3336515 669.79845,-2.4408717 c 10.97567,-5.794262 21.91281,-11.9691423 32.89702,-18.4910783 7.92216,-4.704323 15.84497,-9.574241 23.74011,-14.619665 2.24471,-1.434525 4.48404,-2.881057 6.71018,-4.343253 v 0 l 8e-5,-5.2e-5 v 0 c 0.59189,-0.388774 1.18028,-0.776931 1.76421,-1.16516 0,0 0,-10e-7 0,-10e-7 0.15076,-0.100234 0.29975,-0.199491 0.44688,-0.297891 4e-5,3.4e-5 5e-5,4.1e-5 6e-5,4.8e-5 1.88164,1.668194 3.76264,3.337159 5.643,5.00688 v 0 c 6.6e-4,1.47e-4 0.0914,0.0203 0.0921,0.02044 0,0 2.5e-4,5.5e-5 2.5e-4,5.5e-5 0.0148,0.0033 0.0174,0.0039 0.0322,0.0072 1.4434,2.333375 2.87806,4.89776 4.21736,7.648315 -0.74486,1.678429 -1.47089,3.406884 -2.20689,5.179782 -2.25747,5.440514 -4.43732,10.946626 -6.64192,16.5525619 C 729.61679,10.545185 722.94548,28.055463 716.05148,46.202021 696.94614,96.492827 678.57404,145.62336 658.41259,199.48994 1003.353,-722.11161 255.82511,1274.9622 600.76546,353.3607 c -6.70726,17.82867 -13.52137,35.92033 -20.4171,53.96051 -2.18425,5.71449 -4.38995,11.46533 -6.644,17.21676 -0.73863,1.8849 -1.48951,3.78812 -2.2637,5.70311 -3.29682,-0.051 -6.63673,-0.0126 -10.05668,0.0995 10.0067,-32.70083 19.10421,-65.79892 28.26101,-99.58628 12.54821,-33.84414 25.27935,-68.68882 38.2435,-102.92829 11.83461,-31.262 24.03011,-62.7041 37.52473,-93.71087 0,0 4e-5,-1.1e-4 4e-5,-1.1e-4 5.61118,-12.89466 11.48177,-25.76649 17.87312,-38.461348 4.32681,-8.583212 8.92252,-17.177274 14.0725,-25.573617 1.04084,-1.696945 2.1043,-3.385793 3.19275,-5.064832 17.50105,-23.73069 38.4595,-44.873146 62.01057,-62.5291889 4.09722,-3.06820694 8.33071,-6.0477021 12.73976,-8.8587619 0,0 1.1e-4,-6.65e-5 1.1e-4,-6.65e-5 3.18929,-2.0438775 6.61017,-4.0782337 10.34674,-5.9066857 1.27682,-0.630037 2.72713,-1.273462 4.3686,-1.869464 0.96531,-0.414319 2.52851,-0.840703 4.69864,-1.127206 0.86834,-0.990966 3.90656,-0.130896 8.84984,2.88379 1.93689,2.131888 2.96187,4.2580582 3.07816,6.3312876 0.0681,2.2916056 -0.12498,3.8542562 -0.52485,4.6742981 -2.56574,7.4697106 -4.77404,15.1945903 -6.93859,23.0481513 -2.74612,9.98819 -5.31999,20.068876 -7.85839,30.179033 0,0 -2e-5,1.14e-4 -2e-5,1.14e-4 -6.15387,24.514438 -12.0567,49.089886 -18.28657,73.544656 -6.67118,26.19439 -13.61064,52.14439 -21.59541,77.84426 -3.72437,11.98772 -7.67903,23.89948 -12.04954,35.68767 0,0 -7e-5,9e-5 -7e-5,9e-5 -6.71007,9.21839 -13.72819,18.38333 -21.38425,27.34651 -0.2468,-7.55047 -0.0581,-14.73585 0.2507,-21.64251 3.90741,-7.183 8.0749,-14.1355 12.33983,-20.91353 10.60307,-16.85365 21.98383,-33.02947 33.5281,-48.69356 13.50433,-18.32896 27.41552,-36.12489 41.50443,-53.41122 14.6953,-18.0316 29.6104,-35.534631 44.78511,-52.50278 14.19027,-15.869382 28.52585,-31.208142 43.36049,-45.914856 6.45485,-6.399329 12.9959,-12.661371 19.7093,-18.7336581 0,0 8e-5,-7.02e-5 8e-5,-7.02e-5 5.71991,-5.17606872 11.57521,-10.2256066 17.69697,-15.0197947 4.78943,-3.762948 9.84109,-7.439414 15.3536,-10.699729 0,0 9e-5,-5.6e-5 9e-5,-5.6e-5 3.65543,-2.265007 8.10723,-4.509647 13.52023,-5.773122 0,0 1.4e-4,-3.5e-5 1.4e-4,-3.5e-5 1.90498,-0.478007 4.28686,-0.643901 7.05746,-0.284294 0,0 2.2e-4,3e-5 2.2e-4,3e-5 2.44982,0.337284 4.90565,1.455902 7.16046,3.367438 2.2104,2.16939 3.56493,4.451919 4.14911,6.603163 0.81275,2.744831 1.07856,5.215099 1.02188,7.300968 -0.0696,5.47231 -1.11815,10.40046424 -2.37282,14.7301901 0,0 -3e-5,1.009e-4 -3e-5,1.009e-4 -1.72732,6.223463 -3.91771,12.128271 -6.19818,17.762153 -6.5007,16.101921 -14.1539,31.584251 -21.51432,46.344419 -10.27829,20.631279 -20.60693,40.634333 -30.51581,60.219223 -12.63092,24.966 -24.42541,48.79958 -35.62083,72.51435 -13.48715,28.57168 -25.04268,52.3848 -36.90731,78.78508 -12.07407,26.88005 -22.32931,51.56851 -30.49217,76.58176 -7.92655,24.37609 -13.33628,46.77702 -14.52115,69.00766 -0.56143,10.45617 -0.14264,20.45168 1.56065,29.94073 1.70436,9.50019 4.65663,18.32958 8.81163,26.16121 3.21826,5.96903 7.79571,10.86881 13.2742,13.29184 5.40537,2.54819 11.81594,2.81229 17.67107,1.89969 7.32992,-1.16706 14.23116,-4.28106 20.22222,-7.86839 7.57865,-4.56198 13.9914,-10.19177 19.23141,-15.89233 10.20969,-11.16852 16.70019,-21.14695 20.69721,-30.96848 2.67392,-6.57249 3.84829,-12.26934 4.07558,-17.2686 0.27092,-5.7867 -0.81464,-10.43682 -1.60148,-13.2041 -0.82266,-2.89326 -1.40905,-4.33085 -1.18878,-4.44797 z"
           id="path15754"
           inkscape:path-effect="#path-effect15803;#path-effect20282"
           inkscape:original-d="m 484.95991,209.45401 c 0,0 154.38725,8.84732 168.60613,-14.77476 33.34744,-55.40071 75.6697,-214.000534 75.6697,-214.000534 0,0 -45.45031,25.7353597 -93.16419,40.964021 v 0 C 685.68407,0.98940123 739.78587,-35.011476 739.78587,-35.011476 728.00664,-13.483067 572.39564,405.55852 561.44104,430.20637 608.91108,313.62096 665.8562,136.01391 708.40757,70.455454 747.10593,18.002874 799.81882,-13.032912 797.07191,-4.3690759 779.3439,47.42 752.67441,193.55356 718.11894,266.00779 750.62696,185.60955 971.19335,-71.370413 971.36391,-10.03147 c 0.0768,27.630822 -45.76839,103.894677 -94.4382,208.62168 -48.49964,104.36084 -105.96484,217.97181 -69.09375,285.5006 16.22197,29.71027 52.84548,18.1023 76.48113,-8.69104 16.03486,-18.17709 31.85699,-45.08167 19.74251,-67.86516"
           sodipodi:nodetypes="csccccccccssssc" /></g></g><a
       id="a26525"
       style="fill:none"
       inkscape:path-effect="#path-effect27529" /></g></svg>
